<svg width="80" height="80" viewBox="0 0 80 80" fill="none" xmlns="http://www.w3.org/2000/svg"><rect width="80" height="80" rx="12" fill="url(#paint0_linear_1488_995)"></rect><g filter="url(#filter0_d_1488_995)"><path d="M40.0003 44.3061C39.6493 44.3061 39.3045 44.2156 39.0003 44.0437L21.0003 33.848C20.0436 33.306 19.7159 32.1057 20.2686 31.1673C20.4441 30.8692 20.6965 30.6217 21.0003 30.4495L39.0003 20.2615C39.6196 19.9128 40.3811 19.9128 41.0003 20.2615L59.0003 30.4495C59.9571 30.9916 60.2848 32.1918 59.7321 33.1303C59.5566 33.4283 59.3042 33.6759 59.0003 33.848L41.0003 44.0437C40.6962 44.2156 40.3514 44.3061 40.0003 44.3061Z" fill="white" fill-opacity="0.2" shape-rendering="crispEdges"></path><path d="M59.0003 38.2964L55.0721 36.0731L41.0003 44.0437C40.3814 44.3936 39.6193 44.3936 39.0003 44.0437L24.9286 36.0731L21.0003 38.2964C20.0436 38.8385 19.7159 40.0387 20.2686 40.9772C20.4441 41.2753 20.6965 41.5228 21.0003 41.695L39.0003 51.8906C39.6193 52.2405 40.3814 52.2405 41.0003 51.8906L59.0003 41.695C59.9571 41.1529 60.2848 39.9527 59.7321 39.0142C59.5566 38.7161 59.3042 38.4686 59.0003 38.2964Z" fill="white" fill-opacity="0.5" shape-rendering="crispEdges"></path><path d="M59.0003 46.1434L55.0721 43.92L41.0003 51.8906C40.3814 52.2405 39.6193 52.2405 39.0003 51.8906L24.9286 43.92L21.0003 46.1434C20.0436 46.6854 19.7159 47.8857 20.2686 48.8241C20.4441 49.1222 20.6965 49.3698 21.0003 49.5419L39.0003 59.7375C39.6193 60.0875 40.3814 60.0875 41.0003 59.7375L59.0003 49.5419C59.9571 48.9998 60.2848 47.7996 59.7321 46.8611C59.5566 46.5631 59.3042 46.3155 59.0003 46.1434Z" fill="white" fill-opacity="0.8" shape-rendering="crispEdges"></path></g><defs><filter id="filter0_d_1488_995" x="12" y="14" width="56.0005" height="56" filterUnits="userSpaceOnUse" color-interpolation-filters="sRGB"><feFlood flood-opacity="0" result="BackgroundImageFix"></feFlood><feColorMatrix in="SourceAlpha" type="matrix" values="0 0 0 0 0 0 0 0 0 0 0 0 0 0 0 0 0 0 127 0" result="hardAlpha"></feColorMatrix><feOffset dy="2"></feOffset><feGaussianBlur stdDeviation="4"></feGaussianBlur><feComposite in2="hardAlpha" operator="out"></feComposite><feColorMatrix type="matrix" values="0 0 0 0 0.0196078 0 0 0 0 0.0196078 0 0 0 0 0.12549 0 0 0 0.1 0"></feColorMatrix><feBlend mode="normal" in2="BackgroundImageFix" result="effect1_dropShadow_1488_995"></feBlend><feBlend mode="normal" in="SourceGraphic" in2="effect1_dropShadow_1488_995" result="shape"></feBlend></filter><linearGradient id="paint0_linear_1488_995" x1="76" y1="80" x2="-6.33242" y2="42.8837" gradientUnits="userSpaceOnUse"><stop stop-color="#FCF097"></stop><stop offset="0.494792" stop-color="#E479B3"></stop><stop offset="1" stop-color="#9D59EF"></stop></linearGradient></defs></svg>