<svg width="338" height="130" viewBox="0 0 338 130" fill="none" xmlns="http://www.w3.org/2000/svg"><path d="M229 49C229 38.5066 237.507 30 248 30H271.08C281.573 30 290.08 38.5066 290.08 49V72.0796C290.08 82.573 281.573 91.0795 271.08 91.0795H248C237.507 91.0795 229 82.573 229 72.0795V49Z" fill="#111729" fill-opacity="0.4"></path><path fill-rule="evenodd" clip-rule="evenodd" d="M108 19C108 8.50659 116.507 0 127 0H158.616C169.109 0 177.616 8.50661 177.616 19V50.616C177.616 61.1094 169.109 69.616 158.616 69.616H151.616C141.123 69.616 132.616 78.1226 132.616 88.616V101.616C132.616 112.109 124.109 120.616 113.616 120.616H63.5C63.2239 120.616 63 120.392 63 120.116V120.116C63 119.84 62.7761 119.616 62.5 119.616H19C8.50659 119.616 0 111.109 0 100.616V69C0 58.5066 8.50659 50 19 50H69.116C69.3922 50 69.616 50.2239 69.616 50.5V50.5C69.616 50.7761 69.8399 51 70.116 51H89C99.4934 51 108 42.4934 108 32V19ZM337.616 79C337.616 68.5066 329.109 60 318.616 60H287C276.507 60 268 68.5066 268 79V110.616C268 121.109 276.507 129.616 287 129.616H318.616C329.109 129.616 337.616 121.109 337.616 110.616V79Z" fill="#111729" fill-opacity="0.4"></path></svg>