<svg width="471" height="173" viewBox="0 0 471 173" fill="none" xmlns="http://www.w3.org/2000/svg"><path fill-rule="evenodd" clip-rule="evenodd" d="M88 65C88 54.5066 96.5066 46 107 46H131.977C141.423 46 149.08 53.657 149.08 63.1023V63.1023C149.08 72.5476 156.737 80.2046 166.182 80.2046H173.446C183.94 80.2046 192.446 88.7112 192.446 99.2046V122.284C192.446 132.778 183.94 141.284 173.446 141.284H148.469C139.024 141.284 131.367 133.627 131.367 124.182V124.182C131.367 114.737 123.71 107.08 114.264 107.08H107C96.5066 107.08 88 98.573 88 88.0796V65ZM61.0795 130C61.0795 119.507 52.573 111 42.0796 111H19C8.50659 111 0 119.507 0 130V153.08C0 163.573 8.50658 172.08 19 172.08H42.0795C52.573 172.08 61.0795 163.573 61.0795 153.08V130Z" fill="#111729" fill-opacity="0.4"></path><path fill-rule="evenodd" clip-rule="evenodd" d="M414.232 19C414.232 8.50659 405.725 0 395.232 0H363.616C353.123 0 344.616 8.50661 344.616 19V50.616C344.616 61.1094 353.123 69.616 363.616 69.616H385.684C394.143 69.616 401 76.473 401 84.9315V84.9315C401 93.3901 394.143 100.247 385.684 100.247H344.616H294C283.507 100.247 275 108.754 275 119.247V150.863C275 161.357 283.507 169.863 294 169.863H344.616H395.232C405.725 169.863 414.232 161.357 414.232 150.863V140.616C414.232 130.123 422.739 121.616 433.232 121.616H451.616C462.109 121.616 470.616 113.109 470.616 102.616V71C470.616 60.5066 462.109 52 451.616 52H433.232C422.739 52 414.232 43.4934 414.232 33V19Z" fill="#111729" fill-opacity="0.4"></path></svg>