<svg width="160" height="31" viewBox="0 0 55 31" fill="none" xmlns="http://www.w3.org/2000/svg">
  <path fill-rule="evenodd" clip-rule="evenodd" d="M6.37134 23.1575L18.2384 29.6506C20.5491 30.9149 23.5038 30.1646 24.8379 27.9747C26.172 25.7849 25.3803 22.9847 23.0696 21.7204L15.3958 17.5217L8.44862 22.1321C7.79063 22.5688 7.09204 22.9095 6.37134 23.1575Z" fill="#F0402C"></path>
  <path fill-rule="evenodd" clip-rule="evenodd" d="M1.93111 11.9358L16.7674 0.872597C18.8159 -0.654919 21.6394 -0.124907 23.0739 2.05641C23.4325 2.60174 23.6704 3.19865 23.7934 3.81113C23.9977 4.82795 23.8856 5.8877 23.4843 6.82562C23.1605 7.58256 22.6483 8.26014 21.9622 8.77179L7.12584 19.835C5.07737 21.3626 2.25388 20.8325 0.819396 18.6512C0.265359 17.8087 -0.000446537 16.8431 5.63076e-07 15.8872C0.000726536 14.3681 0.673831 12.8734 1.93111 11.9358Z" fill="#F0402C"></path>
  <path fill-rule="evenodd" clip-rule="evenodd" d="M47.7864 7.10731L35.9193 0.614183C33.6086 -0.650129 30.6539 0.100171 29.3198 2.29002C27.9857 4.47987 28.7774 7.28003 31.0881 8.54434L38.762 12.7431L45.7091 8.13266C46.3671 7.69599 47.0657 7.35523 47.7864 7.10731Z" fill="#F0402C"></path>
  <path fill-rule="evenodd" clip-rule="evenodd" d="M52.2271 19.2472L37.3908 29.4594C35.3423 30.8694 32.5188 30.3802 31.0843 28.3667C30.7257 27.8633 30.4878 27.3123 30.3648 26.7469C30.1605 25.8083 30.2726 24.8301 30.6739 23.9643C30.9977 23.2656 31.5099 22.6401 32.196 22.1678L47.0324 11.9556C49.0808 10.5456 51.9043 11.0349 53.3388 13.0484C53.8928 13.8261 54.1587 14.7174 54.1582 15.5998C54.1575 17.002 53.4844 18.3818 52.2271 19.2472Z" fill="#F0402C"></path>
</svg>
