<svg width="80" height="80" viewBox="0 0 80 80" fill="none" xmlns="http://www.w3.org/2000/svg"><rect width="80" height="80" rx="12" fill="url(#paint0_linear_1496_1272)"></rect><rect x="17" y="17" width="45" height="45" rx="2" fill="white" fill-opacity="0.2"></rect><rect x="17" y="17" width="40" height="45" rx="2" fill="white" fill-opacity="0.4"></rect><path d="M29.7916 52.49C28.7676 52.49 27.8636 52.298 27.0796 51.914C26.3116 51.514 25.6716 50.978 25.1596 50.306L27.3676 48.194C27.6556 48.61 27.9996 48.93 28.3996 49.154C28.8156 49.362 29.2716 49.466 29.7676 49.466C30.2636 49.466 30.6956 49.362 31.0636 49.154C31.4476 48.946 31.7356 48.642 31.9276 48.242C32.1356 47.842 32.2396 47.354 32.2396 46.778V35.378H35.5276V46.586C35.5276 47.77 35.2876 48.81 34.8076 49.706C34.3436 50.586 33.6796 51.274 32.8156 51.77C31.9676 52.25 30.9596 52.49 29.7916 52.49ZM43.4448 52.49C42.0848 52.49 40.9168 52.258 39.9408 51.794C38.9808 51.33 38.1088 50.634 37.3248 49.706L39.4848 47.546C39.9808 48.202 40.5568 48.714 41.2128 49.082C41.8688 49.434 42.6688 49.61 43.6128 49.61C44.4608 49.61 45.1328 49.442 45.6288 49.106C46.1408 48.77 46.3968 48.306 46.3968 47.714C46.3968 47.202 46.2528 46.786 45.9648 46.466C45.6768 46.146 45.2928 45.874 44.8128 45.65C44.3488 45.426 43.8288 45.226 43.2528 45.05C42.6928 44.858 42.1248 44.642 41.5488 44.402C40.9888 44.162 40.4688 43.866 39.9888 43.514C39.5248 43.146 39.1488 42.682 38.8608 42.122C38.5728 41.546 38.4288 40.826 38.4288 39.962C38.4288 38.938 38.6768 38.066 39.1728 37.346C39.6688 36.626 40.3488 36.074 41.2128 35.69C42.0768 35.306 43.0528 35.114 44.1408 35.114C45.2928 35.114 46.3328 35.33 47.2608 35.762C48.1888 36.194 48.9488 36.754 49.5408 37.442L47.3808 39.602C46.8848 39.058 46.3728 38.658 45.8448 38.402C45.3328 38.146 44.7488 38.018 44.0928 38.018C43.3408 38.018 42.7488 38.162 42.3168 38.45C41.8848 38.738 41.6688 39.154 41.6688 39.698C41.6688 40.162 41.8128 40.538 42.1008 40.826C42.3888 41.114 42.7648 41.362 43.2288 41.57C43.7088 41.778 44.2288 41.978 44.7888 42.17C45.3648 42.362 45.9328 42.578 46.4928 42.818C47.0688 43.058 47.5888 43.37 48.0528 43.754C48.5328 44.138 48.9168 44.634 49.2048 45.242C49.4928 45.834 49.6368 46.57 49.6368 47.45C49.6368 49.018 49.0848 50.25 47.9808 51.146C46.8768 52.042 45.3648 52.49 43.4448 52.49Z" fill="white" fill-opacity="0.7"></path><defs><linearGradient id="paint0_linear_1496_1272" x1="76" y1="80" x2="-6.33242" y2="42.8837" gradientUnits="userSpaceOnUse"><stop stop-color="#FCF097"></stop><stop offset="0.494792" stop-color="#E479B3"></stop><stop offset="1" stop-color="#9D59EF"></stop></linearGradient></defs></svg>