<svg width="80" height="80" viewBox="0 0 80 80" fill="none" xmlns="http://www.w3.org/2000/svg"><rect width="80" height="80" rx="12" fill="url(#paint0_linear_1518_1578)"></rect><path d="M55.1668 20.5H24.8335C21.2436 20.5 18.3335 23.4101 18.3335 27V46.5C18.3335 50.0899 21.2436 53 24.8335 53H55.1668C58.7567 53 61.6668 50.0899 61.6668 46.5V27C61.6668 23.4101 58.7567 20.5 55.1668 20.5Z" fill="white" fill-opacity="0.4"></path><path d="M48.6665 59.5001H31.3332C30.941 59.5001 30.5562 59.3937 30.2197 59.1922C29.8833 58.9907 29.6079 58.7016 29.4228 58.3558C29.2378 58.01 29.1501 57.6205 29.169 57.2288C29.188 56.8371 29.3129 56.4579 29.5305 56.1316L38.1972 43.1316C38.4065 42.8509 38.6785 42.6229 38.9915 42.4659C39.3044 42.3088 39.6498 42.2271 39.9999 42.2271C40.3501 42.2271 40.6954 42.3088 41.0084 42.4659C41.3214 42.6229 41.5934 42.8509 41.8027 43.1316L50.4693 56.1316C50.6869 56.4579 50.8119 56.8371 50.8308 57.2288C50.8498 57.6206 50.7621 58.0101 50.577 58.3559C50.3919 58.7017 50.1165 58.9907 49.78 59.1922C49.4436 59.3937 49.0587 59.5001 48.6665 59.5001Z" fill="white" fill-opacity="0.7"></path><defs><linearGradient id="paint0_linear_1518_1578" x1="76" y1="80" x2="-6.33242" y2="42.8837" gradientUnits="userSpaceOnUse"><stop stop-color="#FCF097"></stop><stop offset="0.494792" stop-color="#E479B3"></stop><stop offset="1" stop-color="#9D59EF"></stop></linearGradient></defs></svg>