<svg width="80" height="80" viewBox="0 0 80 80" fill="none" xmlns="http://www.w3.org/2000/svg"><rect width="80" height="80" rx="12" fill="url(#paint0_linear_1499_1275)"></rect><path d="M23.3335 41.6667H43.3335V56.6667H46.6668V41.6667V38.3334V23.3334H43.3335V38.3334H23.3335V41.6667Z" fill="white" fill-opacity="0.2"></path><path d="M54.9998 56.6667H46.6665V23.3334H54.9998C55.9203 23.3334 56.6665 24.0796 56.6665 25V55C56.6665 55.9205 55.9203 56.6667 54.9998 56.6667Z" fill="white"></path><path d="M43.3335 56.6667H25.0002C24.0797 56.6667 23.3335 55.9205 23.3335 55V41.6667H43.3335V56.6667ZM43.3335 38.3334H23.3335V25C23.3335 24.0796 24.0797 23.3334 25.0002 23.3334H43.3335V38.3334Z" fill="white" fill-opacity="0.4"></path><defs><linearGradient id="paint0_linear_1499_1275" x1="76" y1="80" x2="-6.33242" y2="42.8837" gradientUnits="userSpaceOnUse"><stop stop-color="#FCF097"></stop><stop offset="0.494792" stop-color="#E479B3"></stop><stop offset="1" stop-color="#9D59EF"></stop></linearGradient></defs></svg>