<svg width="70" height="21.052631578947366" viewBox="0 0 133 40" fill="none" xmlns="http://www.w3.org/2000/svg"><g clip-path="url(#clip0_2929_756)"><path fill-rule="evenodd" clip-rule="evenodd" d="M82.4228 31.2821C74.7304 36.9701 63.5416 40.0002 53.8913 40.0002C40.3714 40.0002 28.2503 35.0118 19.0195 26.7135C18.3202 26.061 18.9263 25.175 19.812 25.6878C29.7421 31.4687 42.0032 34.9186 54.6838 34.9186C63.2152 34.9186 72.6324 33.1471 81.3038 29.464C82.6087 28.9512 83.6813 30.3498 82.4226 31.2821H82.4228Z" fill="#d1d5db"></path><path fill-rule="evenodd" clip-rule="evenodd" d="M85.6397 27.5992C84.661 26.3404 79.1129 26.9931 76.6421 27.3194C75.8961 27.4126 75.7563 26.76 76.4556 26.2938C80.8845 23.1702 88.1106 24.1026 88.9498 25.1282C89.7889 26.1539 88.7167 33.4261 84.5668 36.8765C83.9143 37.3892 83.3081 37.1095 83.5881 36.4102C84.5208 34.0792 86.6187 28.9041 85.6397 27.5992Z" fill="#d1d5db"></path><path fill-rule="evenodd" clip-rule="evenodd" d="M76.7828 4.38298V1.35192C76.7775 1.25256 76.7932 1.1532 76.8288 1.0603C76.8644 0.9674 76.9192 0.88303 76.9896 0.812677C77.0599 0.742323 77.1443 0.687561 77.2372 0.651946C77.3301 0.616332 77.4294 0.600663 77.5288 0.605958H91.0487C91.2522 0.601673 91.4492 0.677428 91.5974 0.816927C91.7457 0.956427 91.8332 1.14853 91.8413 1.35192V3.91603C91.8413 4.3356 91.4684 4.89475 90.8156 5.82752L83.8227 15.8043C86.4335 15.7576 89.1844 16.1305 91.515 17.4355C92.0278 17.7152 92.1675 18.1814 92.2143 18.601V21.8177C92.2143 22.284 91.7481 22.7965 91.2356 22.517C87.0864 20.3258 81.5386 20.0928 76.9699 22.5637C76.5037 22.7967 75.9912 22.3306 75.9912 21.8644V18.7878C75.9912 18.3216 75.9912 17.4828 76.504 16.7366L84.6159 5.12823H77.5755C77.3721 5.13252 77.1751 5.05686 77.0269 4.91751C76.8787 4.77816 76.7911 4.58624 76.7828 4.38298V4.38298ZM27.5055 23.1701H23.403C23.2191 23.1515 23.0465 23.073 22.9117 22.9466C22.7769 22.8203 22.6874 22.6531 22.657 22.4708V1.39858C22.6651 1.19522 22.7526 1.00314 22.9008 0.863643C23.049 0.724147 23.246 0.648375 23.4495 0.652622H27.2723C27.4614 0.655481 27.6426 0.728721 27.7805 0.858033C27.9185 0.987345 28.0033 1.16344 28.0183 1.35192V4.10255H28.1115C29.0902 1.44525 31.002 0.186525 33.5194 0.186525C36.0835 0.186525 37.7152 1.44525 38.8342 4.10255C39.8129 1.44525 42.0976 0.186525 44.5221 0.186525C46.2471 0.186525 48.1119 0.885815 49.2774 2.51759C50.5824 4.28908 50.3031 6.85319 50.3031 9.13759V22.4709C50.2951 22.6743 50.2075 22.8664 50.0593 23.0059C49.9111 23.1454 49.7141 23.2211 49.5106 23.2169H45.4542C45.0346 23.1702 44.7082 22.844 44.7082 22.4709V11.282C44.7082 10.3962 44.8014 8.15844 44.615 7.31929C44.2888 5.92071 43.403 5.50113 42.1908 5.50113C41.6556 5.51637 41.1365 5.68779 40.6975 5.99428C40.2585 6.30076 39.9186 6.72894 39.7199 7.2261C39.3003 8.2983 39.347 10.0699 39.347 11.282V22.4709C39.3389 22.6743 39.2514 22.8664 39.1032 23.0059C38.955 23.1454 38.7579 23.2211 38.5545 23.2169H34.4519C34.0323 23.1702 33.706 22.844 33.706 22.4709V11.282C33.706 8.95092 34.0789 5.45446 31.1885 5.45446C28.2515 5.45446 28.3447 8.81106 28.3447 11.282V22.4709C28.3154 22.6703 28.2136 22.8519 28.0587 22.9809C27.9039 23.11 27.7069 23.1773 27.5055 23.1702V23.1701ZM103.496 0.186525C109.603 0.186525 112.913 5.40794 112.913 12.0746C112.913 18.5082 109.277 23.6363 103.496 23.6363C97.5288 23.6363 94.2654 18.4149 94.2654 11.8881C94.2187 5.31461 97.5288 0.185958 103.496 0.185958V0.186525ZM103.496 4.52212C100.466 4.52212 100.279 8.67135 100.279 11.2355C100.279 13.7996 100.233 19.3007 103.45 19.3007C106.62 19.3007 106.806 14.8718 106.806 12.1678C106.806 10.3962 106.713 8.25177 106.2 6.57333C105.734 5.08142 104.802 4.52212 103.496 4.52212ZM120.792 23.1701H116.69C116.27 23.1234 115.944 22.7972 115.944 22.4241V1.30496C115.969 1.11245 116.064 0.935688 116.209 0.807201C116.355 0.678713 116.542 0.607148 116.736 0.605672H120.559C120.732 0.611785 120.899 0.674275 121.034 0.783657C121.168 0.893039 121.264 1.04334 121.305 1.21177V4.42851H121.398C122.564 1.53802 124.149 0.186097 126.993 0.186097C128.811 0.186097 130.629 0.838581 131.795 2.65702C132.867 4.33532 132.867 7.17915 132.867 9.23049V22.5172C132.839 22.7046 132.742 22.8751 132.596 22.9955C132.449 23.116 132.264 23.1781 132.074 23.1696H127.971C127.598 23.123 127.272 22.8434 127.225 22.5172V11.0489C127.225 8.71787 127.505 5.36099 124.661 5.36099C123.683 5.36099 122.75 6.01347 122.284 7.03929C121.724 8.34425 121.631 9.6034 121.631 11.0487V22.4245C121.605 22.6293 121.506 22.8177 121.352 22.9549C121.197 23.092 120.998 23.1686 120.792 23.1705L120.792 23.1701ZM66.0139 13.1003C66.0139 14.6854 66.0606 16.0373 65.2679 17.4833C64.6155 18.6488 63.5896 19.3481 62.4241 19.3481C60.839 19.3481 59.9067 18.136 59.9067 16.3644C59.9067 12.8679 63.0302 12.2152 66.0139 12.2152V13.1003ZM70.1631 23.1235C70.0302 23.2395 69.8643 23.3109 69.6888 23.3276C69.5132 23.3443 69.3368 23.3056 69.1844 23.2167C67.8325 22.0979 67.5532 21.5384 66.8068 20.4661C64.5691 22.7498 62.9373 23.4498 60.047 23.4498C56.597 23.4498 53.893 21.3052 53.893 17.0628C53.893 13.7062 55.7112 11.4685 58.276 10.3495C60.5138 9.37078 63.6377 9.18397 66.0149 8.90425V8.39149C66.0149 7.41277 66.1081 6.24695 65.5021 5.4078C64.9894 4.66184 64.0569 4.3356 63.2184 4.3356C61.6333 4.3356 60.2348 5.12808 59.9084 6.80652C59.8152 7.17943 59.5821 7.55248 59.2091 7.55248L55.2464 7.13291C54.9201 7.03971 54.5471 6.80667 54.6403 6.29376C55.5726 1.44525 59.9084 0 63.8244 0C65.8291 0 68.4397 0.512766 70.0248 2.05121C72.0295 3.91603 71.843 6.43418 71.843 9.13745V15.5244C71.843 17.4359 72.6355 18.275 73.3814 19.3472C73.6611 19.7201 73.7077 20.1864 73.3814 20.4194C72.4956 21.1187 71.0038 22.4241 70.1647 23.1234L70.1631 23.1235ZM12.1675 13.1003C12.1675 14.6854 12.2142 16.0373 11.4216 17.4833C10.7691 18.6488 9.74326 19.3481 8.57773 19.3481C6.99263 19.3481 6.06028 18.136 6.06028 16.3644C6.06028 12.8679 9.18383 12.2152 12.1675 12.2152V13.1003ZM16.2701 23.1235C16.1372 23.2395 15.9713 23.3109 15.7957 23.3276C15.6201 23.3443 15.4437 23.3056 15.2913 23.2167C13.9394 22.0979 13.6601 21.5384 12.9138 20.4661C10.676 22.7498 9.04425 23.4498 6.1539 23.4498C2.70397 23.4498 0 21.3052 0 17.0628C0 13.7062 1.81816 11.4685 4.38298 10.3495C6.62071 9.37078 9.74468 9.18397 12.1218 8.90425V8.39149C12.1218 7.41277 12.215 6.24695 11.6091 5.4078C11.0963 4.66184 10.1638 4.3356 9.32539 4.3356C7.74028 4.3356 6.3417 5.12808 6.01532 6.80652C5.92213 7.17943 5.68908 7.55248 5.31603 7.55248L1.35333 7.13291C1.02709 7.03971 0.654043 6.80667 0.747235 6.29376C1.67958 1.44525 6.01532 0 9.93135 0C11.936 0 14.5467 0.512766 16.1318 2.05121C18.1365 3.91603 17.9499 6.43418 17.9499 9.13745V15.5244C17.9499 17.4359 18.7424 18.275 19.4884 19.3472C19.7681 19.7201 19.8146 20.1864 19.4884 20.4194C18.6026 21.1187 17.1108 22.4241 16.2716 23.1234L16.2701 23.1235Z" fill="#d1d5db"></path></g><defs><clipPath id="clip0_2929_756"><rect width="132.867" height="40" fill="white"></rect></clipPath></defs></svg>