<svg width="70" height="35" viewBox="0 0 120 60" fill="none" xmlns="http://www.w3.org/2000/svg"><path d="M31.6668 30.4534C31.6253 25.8878 35.3989 23.6941 35.5689 23.5863C33.4458 20.4804 30.1449 20.0574 28.9672 20.0076C26.1598 19.7215 23.4852 21.6622 22.0587 21.6622C20.6322 21.6622 18.4344 20.0491 16.1039 20.0947C13.0394 20.1403 10.2154 21.8737 8.63546 24.6189C5.45487 30.1341 7.82269 38.3158 10.9245 42.7985C12.4422 44.988 14.2461 47.4553 16.6222 47.3641C18.9112 47.2729 19.7738 45.8837 22.5355 45.8837C25.2973 45.8837 26.0769 47.3641 28.4903 47.3185C30.9494 47.2687 32.5086 45.0792 34.0139 42.8814C35.7514 40.3394 36.4688 37.8762 36.5103 37.7477C36.4563 37.7269 31.7166 35.9106 31.6668 30.4534Z" fill="#d1d5db"></path><path d="M27.1262 17.043C28.3862 15.517 29.2362 13.393 29.0042 11.279C27.1882 11.354 24.9902 12.489 23.6882 14.016C22.5232 15.364 21.4882 17.524 21.7762 19.598C23.7962 19.756 25.8662 18.565 27.1262 17.044" fill="#d1d5db"></path><path d="M47.5856 34.944L45.4856 41.276H42.8096L49.6476 21.146H52.7826L59.6496 41.276H56.8696L54.7176 34.944H47.5856ZM54.1876 32.912L52.2176 27.119C51.7696 25.804 51.4716 24.609 51.1726 23.445H51.1146L50.0996 27.1L48.1296 32.922L54.1876 32.912Z" fill="#d1d5db"></path><path d="M61.6854 31.54L61.5654 26.82H63.9254L64.0454 29.3H64.1034C65.1774 27.538 66.8814 26.493 69.2414 26.493C72.7374 26.493 75.3614 29.45 75.3614 33.841C75.3614 39.037 72.1974 41.604 68.7914 41.604C66.8794 41.604 65.2084 40.766 64.3414 39.336H64.2834V47.2H61.6834L61.6854 31.54ZM64.2814 35.392C64.2814 35.792 64.3394 36.138 64.4014 36.466C64.8784 38.286 66.4614 39.543 68.3454 39.543C71.1234 39.543 72.7454 37.275 72.7454 33.957C72.7454 31.057 71.2234 28.583 68.4454 28.583C66.6454 28.583 64.9824 29.869 64.4724 31.838C64.3624 32.1857 64.3025 32.5474 64.2944 32.912V35.392H64.2814ZM78.0784 31.54L77.9584 26.82H80.3184L80.4384 29.3H80.4964C81.5704 27.538 83.2744 26.493 85.6344 26.493C89.1304 26.493 91.7544 29.45 91.7544 33.841C91.7544 39.037 88.5904 41.604 85.1844 41.604C83.2724 41.604 81.6014 40.766 80.7344 39.336H80.6764V47.2H78.0764L78.0784 31.54ZM80.6784 35.392C80.6784 35.792 80.7364 36.138 80.7984 36.466C81.2754 38.286 82.8584 39.543 84.7424 39.543C87.5204 39.543 89.1424 37.275 89.1424 33.957C89.1424 31.057 87.6204 28.583 84.8424 28.583C83.0424 28.583 81.3794 29.869 80.8694 31.838C80.7594 32.1857 80.6995 32.5474 80.6914 32.912V35.392H80.6784ZM94.4744 20.074H97.1044V41.277H94.4744V20.074ZM102.386 34.526C102.444 38.08 104.716 39.544 107.341 39.544C109.224 39.544 110.356 39.216 111.343 38.798L111.791 40.681C110.866 41.101 109.291 41.577 106.985 41.577C102.535 41.577 99.8774 38.649 99.8774 34.291C99.8774 29.933 102.444 26.495 106.657 26.495C111.377 26.495 112.627 30.645 112.627 33.295C112.627 33.835 112.569 34.249 112.527 34.518L102.386 34.526ZM110.091 32.643C110.121 30.973 109.403 28.373 106.446 28.373C103.788 28.373 102.623 30.823 102.416 32.643H110.091Z" fill="#d1d5db"></path></svg>