<svg width="40" height="40" viewBox="0 0 40 40" fill="none" xmlns="http://www.w3.org/2000/svg"><path d="M7.37732 34.0013L4.56982 2.5H35.4298L32.6186 33.9963L19.9811 37.5L7.37732 34.0013Z" fill="#1572B6"></path><path d="M20 34.8224L30.2125 31.9912L32.615 5.07617H20V34.8224Z" fill="#33A9DC"></path><path d="M20 16.4889H25.1125L25.465 12.5327H20V8.66895H20.0137H29.6875L29.595 9.7052L28.6462 20.3527H20V16.4889Z" fill="white"></path><path d="M20.0236 26.5224L20.0061 26.5274L15.7036 25.3649L15.4286 22.2837H13.3373H11.5498L12.0911 28.3499L20.0048 30.5474L20.0236 30.5424V26.5224Z" fill="#EBEBEB"></path><path d="M24.7835 20.189L24.3185 25.3627L20.0098 26.5252V30.5452L27.9298 28.3502L27.9885 27.6977L28.6598 20.189H24.7835Z" fill="white"></path><path d="M20.0137 8.66895V11.0689V12.5227V12.5327H10.6937H10.6812L10.6037 11.6639L10.4275 9.7052L10.335 8.66895H20.0137Z" fill="#EBEBEB"></path><path d="M20 16.4888V18.8888V20.3425V20.3525H15.7638H15.7513L15.6737 19.4838L15.4988 17.525L15.4062 16.4888H20Z" fill="#EBEBEB"></path></svg>