<svg width="40" height="40" viewBox="0 0 40 40" fill="none" xmlns="http://www.w3.org/2000/svg"><path d="M3.2317 21.7665C2.2561 20.7909 2.2561 19.2091 3.2317 18.2335L18.2335 3.2317C19.2091 2.2561 20.7909 2.2561 21.7665 3.2317L36.7682 18.2335C37.7439 19.2091 37.7439 20.7909 36.7682 21.7665L21.7665 36.7682C20.7909 37.7439 19.2091 37.7439 18.2335 36.7682L3.2317 21.7665Z" fill="#EE513B"></path><path d="M15.1861 6.32666L13.667 7.84584L17.5906 11.7695C17.4319 12.11 17.3432 12.4898 17.3432 12.8903C17.3432 14.0273 18.0576 14.9974 19.062 15.3763V24.9745C18.0576 25.3534 17.3432 26.3235 17.3432 27.4605C17.3432 28.9275 18.5325 30.1168 19.9995 30.1168C21.4665 30.1168 22.6557 28.9275 22.6557 27.4605C22.6557 26.4298 22.0686 25.536 21.2105 25.0958V15.3894L24.9611 19.14C24.8101 19.4736 24.7261 19.844 24.7261 20.234C24.7261 21.701 25.9154 22.8903 27.3824 22.8903C28.8494 22.8903 30.0386 21.701 30.0386 20.234C30.0386 18.767 28.8494 17.5778 27.3824 17.5778C27.0972 17.5778 26.8227 17.6226 26.5652 17.7058L22.5371 13.6776C22.6142 13.4289 22.6557 13.1644 22.6557 12.8903C22.6557 11.4232 21.4665 10.234 19.9995 10.234C19.7254 10.234 19.461 10.2755 19.2121 10.3526L15.1861 6.32666Z" fill="white"></path></svg>