<svg width="70" height="23.529411764705884" viewBox="0 0 119 40" fill="none" xmlns="http://www.w3.org/2000/svg"><path d="M50.3263 20.513C50.3263 26.0652 45.9829 30.1565 40.6524 30.1565C35.322 30.1565 30.9785 26.0652 30.9785 20.513C30.9785 14.9217 35.322 10.8696 40.6524 10.8696C45.9829 10.8696 50.3263 14.9217 50.3263 20.513ZM46.0916 20.513C46.0916 17.0435 43.5742 14.6696 40.6524 14.6696C37.7307 14.6696 35.2133 17.0435 35.2133 20.513C35.2133 23.9478 37.7307 26.3565 40.6524 26.3565C43.5742 26.3565 46.0916 23.9435 46.0916 20.513Z" fill="#d1d5db"></path><path d="M71.1955 20.513C71.1955 26.0652 66.852 30.1565 61.5216 30.1565C56.1911 30.1565 51.8477 26.0652 51.8477 20.513C51.8477 14.9261 56.1911 10.8696 61.5216 10.8696C66.852 10.8696 71.1955 14.9217 71.1955 20.513ZM66.9607 20.513C66.9607 17.0435 64.4433 14.6696 61.5216 14.6696C58.5998 14.6696 56.0824 17.0435 56.0824 20.513C56.0824 23.9478 58.5998 26.3565 61.5216 26.3565C64.4433 26.3565 66.9607 23.9435 66.9607 20.513Z" fill="#d1d5db"></path><path d="M91.1959 11.4522V28.7652C91.1959 35.887 86.9959 38.7957 82.0307 38.7957C77.3568 38.7957 74.5438 35.6696 73.4829 33.113L77.1699 31.5783C77.8264 33.1478 79.4351 35 82.0264 35C85.2046 35 87.1742 33.0391 87.1742 29.3478V27.9609H87.0264C86.0786 29.1304 84.2525 30.1522 81.9481 30.1522C77.1264 30.1522 72.709 25.9522 72.709 20.5478C72.709 15.1043 77.1264 10.8696 81.9481 10.8696C84.2481 10.8696 86.0742 11.8913 87.0264 13.0261H87.1742V11.4565H91.1959V11.4522ZM87.4742 20.5478C87.4742 17.1522 85.209 14.6696 82.3264 14.6696C79.4046 14.6696 76.9568 17.1522 76.9568 20.5478C76.9568 23.9087 79.4046 26.3565 82.3264 26.3565C85.209 26.3565 87.4742 23.9087 87.4742 20.5478Z" fill="#d1d5db"></path><path d="M97.8257 1.30435V29.5652H93.6953V1.30435H97.8257Z" fill="#d1d5db"></path><path d="M113.921 23.6869L117.208 25.8782C116.147 27.4478 113.59 30.1522 109.173 30.1522C103.695 30.1522 99.6035 25.9174 99.6035 20.5087C99.6035 14.7739 103.73 10.8652 108.699 10.8652C113.704 10.8652 116.151 14.8478 116.951 17L117.39 18.0956L104.499 23.4348C105.486 25.3696 107.021 26.3565 109.173 26.3565C111.33 26.3565 112.825 25.2956 113.921 23.6869ZM103.804 20.2174L112.421 16.6391C111.947 15.4348 110.521 14.5956 108.843 14.5956C106.69 14.5956 103.695 16.4956 103.804 20.2174Z" fill="#d1d5db"></path><path d="M15.3432 18.0043V13.913H29.1302C29.2649 14.6261 29.3345 15.4696 29.3345 16.3826C29.3345 19.4522 28.4954 23.2478 25.791 25.9522C23.1606 28.6913 19.7997 30.1522 15.3476 30.1522C7.09538 30.1522 0.15625 23.4304 0.15625 15.1783C0.15625 6.92608 7.09538 0.204346 15.3476 0.204346C19.9128 0.204346 23.1649 1.99565 25.6084 4.33043L22.7215 7.21739C20.9693 5.57391 18.5954 4.29565 15.3432 4.29565C9.31712 4.29565 4.60408 9.15217 4.60408 15.1783C4.60408 21.2043 9.31712 26.0609 15.3432 26.0609C19.2519 26.0609 21.478 24.4913 22.9041 23.0652C24.0606 21.9087 24.8215 20.2565 25.1215 18L15.3432 18.0043Z" fill="#d1d5db"></path></svg>