<svg width="40" height="40" viewBox="0 0 40 40" fill="none" xmlns="http://www.w3.org/2000/svg"><path d="M33.8613 19.7324C33.8613 18.8685 33.5181 18.0399 32.9072 17.429C32.2963 16.8181 31.4677 16.4749 30.6038 16.4749C30.4894 16.4748 30.3751 16.4806 30.2613 16.4924L34.7363 3.29492H15.72L20.1888 16.4812C20.1238 16.4812 20.0575 16.4749 19.9913 16.4749C19.2134 16.474 18.4608 16.7515 17.8698 17.2573C17.2787 17.763 16.8881 18.4635 16.7687 19.2322C16.6492 20.0009 16.8088 20.7869 17.2185 21.4482C17.6282 22.1094 18.261 22.6022 19.0025 22.8374C18.3096 24.0305 17.4468 25.1165 16.4413 26.0612C15.1324 27.3124 13.5773 28.2775 11.875 28.8949C10.9213 28.4429 10.1754 27.6448 9.7888 26.6627C9.40224 25.6807 9.40402 24.5882 9.79377 23.6074C9.89002 23.3824 9.98752 23.1549 10.08 22.9274C10.8063 22.7564 11.452 22.3412 11.909 21.7514C12.366 21.1616 12.6068 20.4327 12.591 19.6867C12.5753 18.9407 12.304 18.2227 11.8225 17.6526C11.341 17.0826 10.6785 16.6951 9.94557 16.5548C9.21269 16.4145 8.45387 16.53 7.7959 16.882C7.13794 17.234 6.6207 17.8011 6.3306 18.4885C6.04051 19.176 5.99514 19.9422 6.20207 20.6592C6.409 21.3761 6.8557 22.0003 7.46752 22.4274C6.42772 24.3128 5.63416 26.3238 5.10627 28.4112C4.66377 31.0799 5.10627 33.9112 7.41252 35.5124C12.7875 39.2387 18.6238 33.2024 24.7763 31.6862C27.0063 31.1362 29.4538 31.2249 31.4175 30.0874C32.127 29.6833 32.7388 29.1281 33.2095 28.4609C33.6803 27.7938 33.9984 27.0313 34.1413 26.2274C34.2719 25.4614 34.2473 24.677 34.0689 23.9207C33.8904 23.1644 33.5618 22.4517 33.1025 21.8249C33.5926 21.2393 33.8608 20.4998 33.86 19.7362L33.8613 19.7324ZM23.25 19.7499V19.7387C23.251 19.1781 23.1069 18.6268 22.8318 18.1384C22.5567 17.6499 22.1599 17.2409 21.68 16.9512L25.235 9.74992L28.7975 17.0174C28.3506 17.3144 27.9842 17.7174 27.7309 18.1905C27.4777 18.6636 27.3455 19.1921 27.3463 19.7287C27.3463 19.7524 27.3463 19.7762 27.3463 19.7999L23.25 19.7499Z" fill="#C63D14"></path><path d="M34.6573 19.7325C34.656 18.788 34.3254 17.8735 33.7223 17.1465C33.1193 16.4196 32.2815 15.9257 31.3535 15.75L35.846 2.5H14.611L19.111 15.7763C18.3254 15.9518 17.6099 16.3575 17.0559 16.9415C16.5018 17.5254 16.1342 18.2612 16.0001 19.0549C15.866 19.8487 15.9714 20.6644 16.3028 21.398C16.6342 22.1316 17.1767 22.7498 17.861 23.1737C17.2957 24.0136 16.6383 24.7875 15.901 25.4813C14.7597 26.5732 13.4186 27.4347 11.951 28.0188C11.2623 27.619 10.7402 26.9849 10.48 26.2323C10.2198 25.4796 10.2388 24.6586 10.5335 23.9188L10.5835 23.8025L10.676 23.5838C11.5091 23.2949 12.2254 22.7425 12.7164 22.0101C13.2074 21.2777 13.4464 20.4052 13.3972 19.5249C13.348 18.6445 13.0132 17.8041 12.4436 17.131C11.874 16.4579 11.1006 15.9888 10.2405 15.7946C9.3804 15.6004 8.48044 15.6918 7.67692 16.0549C6.8734 16.4181 6.21008 17.0331 5.78742 17.807C5.36475 18.5808 5.20576 19.4713 5.33453 20.3436C5.46329 21.2159 5.87278 22.0225 6.50101 22.6413C6.36601 22.93 6.22351 23.2225 6.07726 23.5238C5.2668 25.0139 4.6773 26.614 4.32726 28.2738C3.74601 31.7737 4.68351 34.5775 6.96601 36.1587C8.19131 37.035 9.6609 37.5041 11.1673 37.5C13.8323 37.5 16.5285 36.1613 19.1673 34.8512C21.0109 33.8486 22.956 33.0449 24.9698 32.4537C25.691 32.2762 26.4335 32.1687 27.2198 32.055C28.8216 31.927 30.3835 31.4907 31.8198 30.77C32.6297 30.3074 33.328 29.6723 33.8652 28.9097C34.4025 28.1472 34.7655 27.2759 34.9285 26.3575C35.1941 24.7972 34.8874 23.1934 34.0648 21.8412C34.4539 21.2063 34.6594 20.4759 34.6585 19.7313L34.6573 19.7325ZM33.066 19.7325C33.066 20.2195 32.9216 20.6956 32.651 21.1006C32.3804 21.5055 31.9958 21.8212 31.5459 22.0076C31.0959 22.1939 30.6008 22.2427 30.1231 22.1477C29.6454 22.0527 29.2066 21.8181 28.8623 21.4738C28.5179 21.1294 28.2833 20.6906 28.1883 20.2129C28.0933 19.7352 28.1421 19.2401 28.3285 18.7901C28.5148 18.3402 28.8305 17.9556 29.2354 17.685C29.6404 17.4144 30.1165 17.27 30.6035 17.27C31.2564 17.2707 31.8824 17.5303 32.344 17.992C32.8057 18.4536 33.0653 19.0796 33.066 19.7325ZM33.6248 4.09125L29.6573 15.7913C29.4874 15.8324 29.3203 15.8845 29.1573 15.9475L25.2385 7.9475L21.3073 15.9C21.1361 15.8407 20.9611 15.7931 20.7835 15.7575L16.8298 4.09125H33.6248ZM19.991 17.27C20.478 17.27 20.9541 17.4144 21.3591 17.685C21.7641 17.9556 22.0797 18.3402 22.2661 18.7901C22.4524 19.2401 22.5012 19.7352 22.4062 20.2129C22.3112 20.6906 22.0766 21.1294 21.7323 21.4738C21.3879 21.8181 20.9491 22.0527 20.4714 22.1477C19.9937 22.2427 19.4986 22.1939 19.0486 22.0076C18.5987 21.8212 18.2141 21.5055 17.9435 21.1006C17.6729 20.6956 17.5285 20.2195 17.5285 19.7325C17.5292 19.0796 17.7888 18.4536 18.2505 17.992C18.7122 17.5303 19.3381 17.2707 19.991 17.27ZM9.33851 17.2937C9.82576 17.294 10.302 17.4388 10.7069 17.7098C11.1118 17.9808 11.4273 18.3659 11.6133 18.8162C11.7993 19.2666 11.8475 19.762 11.7518 20.2397C11.6562 20.7175 11.4209 21.1561 11.0758 21.5002C10.7308 21.8442 10.2914 22.0781 9.81336 22.1723C9.33531 22.2665 8.84005 22.2168 8.39027 22.0294C7.94049 21.842 7.55641 21.5254 7.28664 21.1197C7.01686 20.7139 6.87352 20.2372 6.87476 19.75C6.87542 19.0971 7.13507 18.4711 7.59674 18.0095C8.0584 17.5478 8.68436 17.2882 9.33726 17.2875L9.33851 17.2937ZM33.3598 26.0863C33.2362 26.7753 32.9627 27.4287 32.5585 28.0003C32.1543 28.5719 31.6294 29.0476 31.021 29.3937C29.7586 30.0067 28.3917 30.3753 26.9923 30.48C26.2023 30.5938 25.386 30.7112 24.5873 30.9087C22.4609 31.5245 20.4073 32.3681 18.4623 33.425C14.5073 35.3887 11.0873 37.085 7.87226 34.8537C5.51351 33.2188 5.62226 30.1938 5.89726 28.5363C6.22088 27.0279 6.76062 25.5741 7.49976 24.22C7.61476 23.9837 7.72726 23.7512 7.83726 23.5212C8.17302 23.6555 8.52537 23.7438 8.88476 23.7838C8.56661 24.9075 8.65551 26.1074 9.13577 27.172C9.61602 28.2366 10.4568 29.0973 11.5098 29.6025L11.816 29.76L12.1398 29.645C13.9456 28.9932 15.5954 27.9714 16.9835 26.645C17.9004 25.7825 18.7058 24.8087 19.381 23.7463C20.2449 23.8777 21.1281 23.7262 21.8989 23.3145C22.6697 22.9028 23.2867 22.2529 23.6579 21.4618C24.029 20.6707 24.1344 19.7808 23.9584 18.9249C23.7823 18.069 23.3343 17.2929 22.681 16.7125L25.2285 11.5612L27.8023 16.8113C27.07 17.517 26.63 18.4724 26.5698 19.4876C26.5096 20.5029 26.8335 21.5036 27.4773 22.2909C28.121 23.0783 29.0374 23.5946 30.0443 23.7373C31.0513 23.8801 32.0751 23.6387 32.9123 23.0612C33.3764 23.9981 33.5318 25.058 33.356 26.0888L33.3598 26.0863Z" fill="white"></path></svg>