<svg width="40" height="40" viewBox="0 0 40 40" fill="none" xmlns="http://www.w3.org/2000/svg"><g clip-path="url(#clip0_1511_1534)"><path d="M29.6863 37.5061C29.5375 37.5848 29.55 37.6098 29.6925 37.5373C29.7388 37.5186 29.7775 37.4923 29.8113 37.4611C29.8113 37.4348 29.8113 37.4348 29.6863 37.5061ZM29.9862 37.3436C29.915 37.4023 29.915 37.4023 30 37.3636C30.045 37.3373 30.085 37.3123 30.085 37.3048C30.085 37.2711 30.065 37.2786 29.9862 37.3436ZM30.1813 37.2261C30.11 37.2848 30.11 37.2848 30.195 37.2461C30.2413 37.2198 30.28 37.1923 30.28 37.1861C30.28 37.1548 30.26 37.1611 30.1813 37.2261ZM30.3787 37.1098C30.3075 37.1686 30.3075 37.1686 30.39 37.1286C30.4363 37.1036 30.475 37.0773 30.475 37.0698C30.475 37.0386 30.455 37.0448 30.3787 37.1098ZM30.645 36.9336C30.5088 37.0248 30.4613 37.0836 30.5863 37.0186C30.67 36.9673 30.8125 36.8548 30.7875 36.8548C30.7337 36.8748 30.6887 36.9086 30.6437 36.9336H30.645ZM18.6912 0.0135821C18.6 0.0198321 18.3263 0.0448321 18.0863 0.0648321C12.4012 0.579832 7.0825 3.63983 3.71125 8.35358C1.8475 10.9373 0.6375 13.9386 0.18125 17.0898C0.02 18.1898 0 18.5148 0 20.0061C0 21.4961 0.02 21.8161 0.18125 22.9161C1.27 30.4298 6.615 36.7373 13.86 39.0748C15.1638 39.4911 16.53 39.7786 18.0863 39.9548C18.6912 40.0198 21.3075 40.0198 21.9125 39.9548C24.6025 39.6548 26.8738 38.9911 29.1213 37.8448C29.4663 37.6698 29.5312 37.6236 29.485 37.5848C28.385 36.1336 27.305 34.6811 26.2238 33.2161L23.0275 28.8998L19.0238 22.9686C17.6887 20.9836 16.3487 19.0036 14.9875 17.0386C14.9738 17.0386 14.9562 19.6748 14.9487 22.8898C14.935 28.5211 14.935 28.7498 14.8637 28.8798C14.7925 29.0361 14.675 29.1661 14.5187 29.2386C14.395 29.2973 14.2838 29.3098 13.6925 29.3098H13.0163L12.84 29.1998C12.73 29.1286 12.6388 29.0298 12.58 28.9136L12.495 28.7373L12.5013 20.8986L12.515 13.0598L12.6388 12.9036C12.7175 12.8073 12.815 12.7286 12.925 12.6698C13.0887 12.5911 13.1538 12.5786 13.83 12.5786C14.6237 12.5786 14.755 12.6098 14.9637 12.8386C16.5837 15.2536 18.1987 17.6748 19.7875 20.1036C22.3862 24.0436 25.9338 29.4198 27.6775 32.0573L30.8488 36.8561L31.005 36.7523C32.5288 35.7361 33.915 34.5261 35.1113 33.1461C37.6313 30.2611 39.2663 26.7123 39.82 22.9248C39.9813 21.8248 40.0013 21.4986 40.0013 20.0086C40.0013 18.5173 39.9813 18.1986 39.82 17.0986C38.7313 9.58483 33.3862 3.27733 26.1413 0.938582C24.7863 0.509832 23.3925 0.217332 21.9812 0.0673321C21.6025 0.0285821 19.0175 -0.0176679 18.6925 0.0160821L18.6912 0.0135821ZM26.875 12.1098C27.0637 12.1998 27.2062 12.3698 27.2712 12.5648C27.305 12.6698 27.3113 14.8436 27.305 19.7398L27.2913 26.7698L26.055 24.8698L24.8113 22.9686V17.8648C24.8113 14.5561 24.825 12.7011 24.8425 12.6098C24.9013 12.4011 25.0438 12.2261 25.2337 12.1161C25.3888 12.0373 25.4487 12.0311 26.0675 12.0311C26.6462 12.0311 26.745 12.0373 26.875 12.1098Z" fill="#94a3b8"></path></g><defs><clipPath id="clip0_1511_1534"><rect width="40" height="40" fill="white"></rect></clipPath></defs></svg>