<svg width="70" height="35" viewBox="0 0 120 60" fill="none" xmlns="http://www.w3.org/2000/svg"><path d="M22.1231 11.828C12.0701 11.828 3.95215 19.97 3.95215 30C3.95215 40.052 12.0921 48.172 22.1241 48.172C32.1761 48.172 40.2962 40.032 40.2962 30C40.2962 19.968 32.1561 11.828 22.1241 11.828H22.1231ZM30.4601 38.054C30.1341 38.597 29.4401 38.749 28.8971 38.424C24.6201 35.819 19.2571 35.234 12.9171 36.664C12.3091 36.794 11.7011 36.424 11.5711 35.817C11.4411 35.21 11.8111 34.601 12.4181 34.471C19.3441 32.886 25.2921 33.559 30.0681 36.491C30.6111 36.817 30.7841 37.511 30.4581 38.054H30.4601ZM32.6741 33.104C32.2621 33.777 31.3941 33.972 30.7201 33.582C25.8351 30.586 18.3901 29.718 12.6141 31.454C11.8541 31.671 11.0741 31.259 10.8541 30.52C10.6371 29.76 11.0491 28.98 11.8091 28.76C18.4091 26.763 26.6151 27.718 32.2391 31.16C32.8891 31.55 33.0861 32.42 32.6731 33.092L32.6741 33.104ZM32.8691 27.937C27.0071 24.463 17.3461 24.137 11.7451 25.831C10.8451 26.113 9.90015 25.591 9.61715 24.701C9.33415 23.811 9.85715 22.856 10.7471 22.573C17.1731 20.619 27.8551 21.01 34.5851 25.005C35.3881 25.483 35.6492 26.525 35.1712 27.328C34.7372 28.153 33.6731 28.414 32.8711 27.936L32.8691 27.937Z" fill="#d1d5db"></path><path d="M49.749 29.4564C46.6496 28.7296 46.1152 28.1952 46.1152 27.1051C46.1152 26.0791 47.0771 25.3951 48.5092 25.3951C49.8986 25.3951 51.288 25.9295 52.7415 26.9982C52.7842 27.041 52.8483 27.041 52.8911 27.041C52.9552 27.041 52.998 26.9982 53.0193 26.9555L54.537 24.818C54.5671 24.7751 54.5794 24.7222 54.5715 24.6704C54.5635 24.6187 54.5358 24.572 54.4942 24.5401C52.7628 23.1507 50.8177 22.4881 48.552 22.4881C45.2175 22.4881 42.8876 24.4974 42.8876 27.3616C42.8876 30.4396 44.8968 31.5297 48.381 32.3634C51.3307 33.0474 51.8437 33.6245 51.8437 34.6291C51.8437 35.762 50.8391 36.4674 49.2146 36.4674C47.4191 36.4674 45.9442 35.8689 44.2983 34.4367C44.2556 34.394 44.1915 34.394 44.1487 34.394C44.0846 34.394 44.0418 34.4154 44.0205 34.4581L42.3318 36.4674C42.2677 36.5529 42.2677 36.6811 42.3532 36.7452C44.277 38.4552 46.6282 39.353 49.1718 39.353C52.7628 39.353 55.0927 37.3865 55.0927 34.3512C55.05 31.7862 53.511 30.3755 49.749 29.4564ZM63.1938 26.3997C61.6335 26.3997 60.351 27.0196 59.3036 28.2807V26.87C59.3036 26.7631 59.2181 26.6776 59.1112 26.6776H56.3538C56.247 26.6776 56.1615 26.7631 56.1615 26.87V42.602C56.1615 42.7089 56.247 42.7944 56.3538 42.7944H59.1112C59.2181 42.7944 59.3036 42.7089 59.3036 42.602V37.643C60.351 38.8186 61.6335 39.3957 63.1938 39.3957C66.0795 39.3957 69.0292 37.1727 69.0292 32.8977C69.0078 28.6441 66.0795 26.3997 63.1938 26.3997ZM65.8016 32.8977C65.8016 35.078 64.455 36.5742 62.5526 36.5742C60.6502 36.5742 59.2395 34.9925 59.2395 32.8977C59.2395 30.803 60.6716 29.2212 62.5526 29.2212C64.4336 29.2212 65.8016 30.7602 65.8016 32.8977ZM76.5318 26.3997C72.8126 26.3997 69.8842 29.264 69.8842 32.9405C69.8842 36.5742 72.7912 39.4171 76.4891 39.4171C80.2297 39.4171 83.1581 36.5529 83.1581 32.8977C83.1581 29.264 80.2511 26.3997 76.5318 26.3997ZM76.5318 36.5956C74.544 36.5956 73.0477 34.9925 73.0477 32.8977C73.0477 30.7816 74.5012 29.2426 76.4891 29.2426C78.477 29.2426 79.9946 30.8457 79.9946 32.9619C79.9732 35.0566 78.5197 36.5956 76.5318 36.5956ZM91.1096 26.6562H88.0743V23.5355C88.0743 23.4286 87.9888 23.3431 87.882 23.3431H85.1246C85.0177 23.3431 84.9322 23.4286 84.9322 23.5355V26.6562H83.607C83.5001 26.6562 83.4146 26.7417 83.4146 26.8486V29.2212C83.4146 29.3281 83.5001 29.4136 83.607 29.4136H84.9322V35.5696C84.9322 38.0491 86.172 39.3102 88.6087 39.3102C89.592 39.3102 90.4256 39.0965 91.1951 38.669C91.2592 38.6262 91.302 38.5621 91.302 38.498V36.2322C91.302 36.1681 91.2592 36.104 91.2165 36.0612C91.1523 36.0185 91.0882 36.0185 91.0241 36.0612C90.4897 36.3391 89.9767 36.446 89.3996 36.446C88.5018 36.446 88.1171 36.0399 88.1171 35.1421V29.435H91.1523C91.2592 29.435 91.3447 29.3495 91.3447 29.2426V26.87C91.3233 26.7417 91.2378 26.6562 91.1096 26.6562ZM101.733 26.6776V26.2929C101.733 25.16 102.16 24.6684 103.122 24.6684C103.699 24.6684 104.17 24.7752 104.683 24.9462C104.747 24.9676 104.811 24.9462 104.875 24.9249C104.918 24.8821 104.961 24.818 104.961 24.7539V22.424C104.961 22.3385 104.896 22.253 104.811 22.2316C104.255 22.0606 103.571 21.911 102.502 21.911C99.9375 21.911 98.5908 23.3431 98.5908 26.0791V26.6562H97.2656C97.1587 26.6562 97.0518 26.7417 97.0518 26.8486V29.2426C97.0518 29.3495 97.1373 29.435 97.2656 29.435H98.5908V38.9255C98.5908 39.0324 98.6763 39.1179 98.7832 39.1179H101.541C101.647 39.1179 101.733 39.0324 101.733 38.9255V29.435H104.319L108.274 38.9255C107.825 39.9301 107.376 40.1225 106.777 40.1225C106.286 40.1225 105.773 39.9729 105.26 39.695C105.217 39.6736 105.153 39.6736 105.089 39.6736C105.046 39.695 104.982 39.7377 104.961 39.7805L104.02 41.8325C103.977 41.9394 104.02 42.0462 104.106 42.089C105.089 42.6234 105.965 42.8371 107.055 42.8371C109.107 42.8371 110.219 41.8752 111.223 39.3316L116.033 26.9341C116.054 26.87 116.054 26.8059 116.011 26.7417C115.969 26.6776 115.905 26.6562 115.84 26.6562H112.955C112.869 26.6562 112.784 26.7204 112.762 26.7845L109.813 35.2062L106.585 26.7631C106.564 26.6776 106.478 26.6349 106.393 26.6349H101.733V26.6776ZM95.577 26.6562H92.8196C92.7127 26.6562 92.6272 26.7417 92.6272 26.8486V38.9255C92.6272 39.0324 92.7127 39.1179 92.8196 39.1179H95.577C95.6838 39.1179 95.7693 39.0324 95.7693 38.9255V26.87C95.7907 26.7417 95.6838 26.6562 95.577 26.6562Z" fill="#d1d5db"></path><path d="M94.2086 25.1386C95.3065 25.1386 96.1965 24.2486 96.1965 23.1507C96.1965 22.0528 95.3065 21.1628 94.2086 21.1628C93.1107 21.1628 92.2207 22.0528 92.2207 23.1507C92.2207 24.2486 93.1107 25.1386 94.2086 25.1386Z" fill="#d1d5db"></path></svg>