<svg width="40" height="40" viewBox="0 0 40 40" fill="none" xmlns="http://www.w3.org/2000/svg"><path d="M34.5039 5.28659C30.7938 -0.0236219 23.4662 -1.59759 18.168 1.77806L8.86308 7.70851C6.3214 9.30753 4.57073 11.9031 4.04036 14.8587C3.59649 17.3209 3.98662 19.8609 5.14898 22.0764C4.3525 23.2846 3.80927 24.6417 3.55211 26.0658C3.01662 29.0782 3.7171 32.1793 5.49542 34.669C9.20637 39.9797 16.534 41.553 21.8314 38.1776L31.1363 32.2471C33.6781 30.6483 35.4289 28.0526 35.959 25.0969C36.4028 22.6347 36.013 20.0948 34.8512 17.8791C35.6475 16.6709 36.1905 15.3138 36.4474 13.8898C36.9832 10.8774 36.2827 7.77618 34.5041 5.28659" fill="#FF3E00"></path><path d="M17.2581 35.1743C14.2579 35.9545 11.0897 34.7801 9.32278 32.233C8.25283 30.7354 7.83135 28.8698 8.15352 27.0577C8.20753 26.7632 8.28185 26.4728 8.37595 26.1885L8.55123 25.654L9.0281 26.0043C10.1294 26.8135 11.3607 27.4287 12.6691 27.8234L13.015 27.9284L12.9831 28.2736C12.9409 28.7648 13.0738 29.2551 13.3585 29.6576C13.8903 30.4248 14.8442 30.7789 15.7477 30.5443C15.95 30.4903 16.1428 30.4055 16.3194 30.2931L25.6274 24.3615C26.0879 24.0716 26.4052 23.6014 26.5019 23.0658C26.5983 22.5196 26.4714 21.9576 26.1495 21.5059C25.6174 20.7385 24.6633 20.3843 23.7593 20.6187C23.5573 20.6727 23.3648 20.7574 23.1884 20.8698L19.6366 23.1339C19.0525 23.5053 18.4151 23.7852 17.7465 23.9639C14.7463 24.744 11.5781 23.5696 9.81124 21.0225C8.74124 19.5249 8.31976 17.6594 8.64198 15.8473C8.96095 14.0695 10.0142 12.5083 11.5432 11.5468L20.8503 5.61475C21.4346 5.24279 22.0724 4.96254 22.7416 4.78375C25.7417 4.00371 28.9099 5.17808 30.6768 7.72514C31.7468 9.22274 32.1683 11.0883 31.8461 12.9004C31.7918 13.1948 31.7175 13.4853 31.6237 13.7696L31.4484 14.3041L30.9718 13.9543C29.8706 13.1447 28.6391 12.5292 27.3305 12.1344L26.9846 12.0294L27.0165 11.6842C27.0584 11.193 26.9254 10.7029 26.6411 10.3003C26.1093 9.53304 25.1554 9.17899 24.2519 9.41351C24.0496 9.46758 23.8568 9.55231 23.6802 9.66477L14.3722 15.5965C13.9118 15.8863 13.5946 16.3565 13.4984 16.8919C13.4013 17.4381 13.5281 18.0003 13.8501 18.452C14.3822 19.2194 15.3363 19.5736 16.2403 19.3392C16.4425 19.2851 16.6353 19.2003 16.8119 19.088L20.3633 16.8247C20.9471 16.4528 21.5844 16.1727 22.2531 15.994C25.2533 15.2139 28.4215 16.3883 30.1884 18.9354C31.2584 20.433 31.6799 22.2985 31.3577 24.1106C31.0385 25.8885 29.9853 27.4499 28.4564 28.4118L19.1493 34.3433C18.565 34.7153 17.9272 34.9956 17.258 35.1743" fill="white"></path></svg>