<svg width="40" height="40" viewBox="0 0 40 40" fill="none" xmlns="http://www.w3.org/2000/svg"><g clip-path="url(#clip0_1511_1474)"><path d="M0 20V40H20H40V20V0H20H0V20Z" fill="#007ACC"></path><path d="M8.84568 20.1327L8.83299 21.7708H11.4362H14.0393V29.1676L14.0393 36.5645H15.8806H17.7219V29.1676V21.7708H20.325H22.9282V20.1645C22.9282 19.2756 22.9092 18.5327 22.8838 18.5137C22.8647 18.4883 19.6965 18.4756 15.8552 18.4819L8.86473 18.501L8.84568 20.1327Z" fill="white"></path><path d="M32.276 18.4543C33.2919 18.7083 34.0665 19.1591 34.7776 19.8956C35.1458 20.2892 35.6919 21.0067 35.7363 21.1781C35.749 21.2289 34.0093 22.3972 32.9553 23.0511C32.9172 23.0765 32.7649 22.9114 32.5934 22.6575C32.0792 21.9083 31.5395 21.5845 30.7141 21.5273C29.5014 21.4448 28.7204 22.0797 28.7268 23.14C28.7268 23.4511 28.7712 23.6352 28.8982 23.8892C29.1649 24.4416 29.6601 24.7718 31.2157 25.4448C34.0792 26.6765 35.3046 27.4892 36.0665 28.6448C36.9172 29.9337 37.1077 31.9908 36.5299 33.521C35.895 35.1845 34.3204 36.3146 32.1045 36.6892C31.4188 36.8099 29.7934 36.7908 29.0569 36.6575C27.4506 36.3718 25.9268 35.5781 24.9871 34.5368C24.6188 34.1305 23.9014 33.0702 23.9458 32.994C23.9649 32.9686 24.1299 32.867 24.3141 32.7591C24.4919 32.6575 25.1649 32.2702 25.7998 31.9019L26.949 31.2352L27.1903 31.5908C27.5268 32.1051 28.2633 32.8099 28.7077 33.0448C29.9839 33.7178 31.7363 33.6225 32.5998 32.8479C32.968 32.5114 33.1204 32.1622 33.1204 31.6479C33.1204 31.1845 33.0633 30.9813 32.822 30.6321C32.5109 30.1876 31.876 29.813 30.0728 29.0321C28.0093 28.1432 27.1204 27.5908 26.3077 26.7146C25.8379 26.2067 25.3934 25.394 25.2093 24.7146C25.0569 24.1495 25.0188 22.7337 25.1395 22.1622C25.5649 20.1686 27.0696 18.7781 29.2411 18.3654C29.9458 18.2321 31.5839 18.2829 32.276 18.4543Z" fill="white"></path></g><defs><clipPath id="clip0_1511_1474"><rect width="40" height="40" rx="4" fill="white"></rect></clipPath></defs></svg>